<svg width="2001" height="2001" viewBox="0 0 2001 2001" fill="none" xmlns="http://www.w3.org/2000/svg">
<rect width="2001" height="2001" fill="#1E1E1E"/>
<rect x="0.5" y="0.5" width="2000" height="2000" rx="322" fill="#A2237E" stroke="#F7F3F3"/>
<path d="M247.918 1643.32C238.983 1663.52 248.117 1687.15 268.32 1696.08C288.523 1705.02 312.146 1695.88 321.082 1675.68L284.5 1659.5L247.918 1643.32ZM284.54 1659.41L253.982 1633.6L250.28 1637.98L247.959 1643.23L284.54 1659.41ZM322.21 1613.07L290.243 1589.02L322.21 1613.07ZM342.734 1579.2L306.627 1561.99L342.734 1579.2ZM380.719 1509.13L419.556 1518.71L380.719 1509.13ZM395.131 1471.36L359.737 1452.72L395.131 1471.36ZM406.289 1432.89L446.169 1435.99L406.289 1432.89ZM411.229 1392.85L450.662 1399.56L411.229 1392.85ZM417.976 1312.99L377.98 1313.55L417.976 1312.99ZM422.324 1152.97L382.788 1146.89L422.324 1152.97ZM418.435 1113.12L380.705 1126.41L418.435 1113.12ZM417.041 1033.11L454.689 1019.6L417.041 1033.11ZM412.242 1006.48L374.238 994.001L374.211 994.084L374.184 994.167L412.242 1006.48ZM414.501 999.6L452.505 1012.08L454.548 1005.86L454.5 999.307L414.501 999.6ZM414.5 999.5L451.375 984L374.501 999.793L414.5 999.5ZM888.195 593.358L926.24 581.005L888.195 593.358ZM871.417 556.547L905.692 535.924L871.417 556.547ZM794.511 462.835L823.316 435.081L794.511 462.835ZM763.885 436.602L740.871 469.318L763.885 436.602ZM730.294 414.081L751.812 380.362L730.294 414.081ZM422.345 372.239L391.66 346.579L422.345 372.239ZM411.743 409.557L372.104 414.921L411.743 409.557ZM409.566 450.238L448.287 460.272L409.566 450.238ZM410.075 609.583L370.676 602.674L410.075 609.583ZM413.762 649.348L376.411 663.661L413.762 649.348ZM437.461 807.192L397.464 807.648L437.461 807.192ZM440.488 847.109L480.101 841.56L440.488 847.109ZM424.813 965.554L384.89 963.071L424.813 965.554ZM428.314 1001.4L466.538 989.611L428.314 1001.4ZM529.204 1045.39L521.021 1084.55L529.204 1045.39ZM607.746 1061.12L612.047 1100.88L607.746 1061.12ZM724.639 1030.42L701.966 997.465L724.639 1030.42ZM756.801 1005.58L730.62 975.336L756.801 1005.58ZM813.883 949.5L845.124 974.481L813.883 949.5ZM875.896 847.804L915.374 854.249V854.249L875.896 847.804ZM890.737 810.321L857.549 787.994L890.737 810.321ZM908.858 773.94L871.02 760.967L908.858 773.94ZM911.886 733.945L872.468 740.743L911.886 733.945ZM914.605 701.356L949.934 720.114L914.605 701.356ZM414.539 999.592L453.917 992.569L453.137 988.191L451.414 984.092L414.539 999.592ZM428.944 1058.48L391.678 1073.01L428.944 1058.48ZM446.184 1094.75L411.334 1114.39L446.184 1094.75ZM465.824 1130.01L500.865 1110.72L465.824 1130.01ZM483.695 1165.85L447.211 1182.25L483.695 1165.85ZM532.705 1275.35L571.065 1264.02L532.705 1275.35ZM588.796 1381.17L551.031 1394.36L588.796 1381.17ZM652.59 1482.36L682.018 1455.27L652.59 1482.36ZM677.268 1513.85L710.622 1491.77L677.268 1513.85ZM699.389 1547.46L665.919 1569.36L699.389 1547.46ZM725.668 1577.62L751.928 1547.45L725.668 1577.62ZM824.182 1646.02L843.434 1610.96L824.182 1646.02ZM860.138 1662.38L846.363 1699.94L860.138 1662.38ZM896.297 1680.77L874.324 1714.19L896.297 1680.77ZM934.582 1687.89L926.141 1648.79L934.582 1687.89ZM1014.43 1682.41L1010.3 1642.62L1014.43 1682.41ZM1090.11 1657.13L1094.29 1696.91L1090.11 1657.13ZM1125.36 1639.41L1155.06 1666.21L1125.36 1639.41ZM1246.33 1534.09L1273.49 1563.45L1246.33 1534.09ZM1272.16 1503.62L1305.58 1525.61L1272.16 1503.62ZM1293.58 1469.71L1327.79 1490.43L1293.58 1469.71ZM1315.55 1436.34L1283 1413.1L1315.55 1436.34ZM1340.84 1405.07L1370.41 1432L1340.84 1405.07ZM1363.56 1372.03L1399.32 1389.95L1363.56 1372.03ZM1378.02 1334.9L1339.55 1323.96L1378.02 1334.9ZM1407.77 1177.59L1445.36 1191.26L1407.77 1177.59ZM1425 1058.7L1463.3 1070.21L1425 1058.7ZM1426.58 978.578L1388.29 967.016L1426.58 978.578ZM1427.23 898.699L1466.47 906.462L1427.23 898.699ZM1433.65 858.652L1393.94 853.769L1433.65 858.652ZM1432.34 818.65L1393.04 826.12L1432.34 818.65ZM1428.3 778.678L1468.3 778.177L1428.3 778.678ZM1422.71 739.063L1384.12 749.613L1422.71 739.063ZM1413.08 700.015L1374.01 708.596L1413.08 700.015ZM1411.02 659.761L1371.25 655.486L1411.02 659.761ZM1393.26 581.989L1356.52 597.804L1393.26 581.989ZM1373.19 504.06L1410.22 488.944L1373.19 504.06ZM1354.04 468.654L1386.98 445.964L1354.04 468.654ZM1322.81 405.901L1347.22 374.213L1347.14 374.148L1347.05 374.084L1322.81 405.901ZM1314.53 399.595L1276.71 412.622L1280.66 424.072L1290.29 431.412L1314.53 399.595ZM1314.5 399.5L1316.79 359.566L1315.93 359.516L1315.07 359.504L1314.5 399.5ZM1314.4 399.499L1299.65 436.679L1306.48 439.39L1313.83 439.494L1314.4 399.499ZM1135.85 380.983L1135.21 340.988L1135.85 380.983ZM1056.27 388.055L1046.47 349.274L1056.27 388.055ZM985.077 394.447L967.835 358.354L967.77 358.385L967.705 358.416L985.077 394.447ZM974.6 399.498L975.216 439.494L984.031 439.358L991.972 435.529L974.6 399.498ZM973.884 359.505C951.796 359.845 934.165 378.027 934.505 400.116C934.845 422.204 953.027 439.835 975.116 439.495L974.5 399.5L973.884 359.505ZM1314.6 399.506L1323 360.398L1319.98 359.748L1316.89 359.571L1314.6 399.506ZM1452.4 422.168L1462.1 460.976L1452.4 422.168ZM1492.73 419.289L1488.21 459.033L1492.73 419.289ZM1532.63 426.848L1542.84 388.173L1532.63 426.848ZM1611.62 415.221L1621.28 454.037L1611.62 415.221ZM1651.5 411.751L1648.85 451.663L1651.5 411.751ZM1713.43 402.012L1744.27 427.48L1744.56 427.124L1744.85 426.761L1713.43 402.012ZM1715.4 399.505L1713.34 359.558L1695.21 360.493L1683.98 374.756L1715.4 399.505ZM1717.56 439.447C1739.62 438.309 1756.58 419.502 1755.45 397.44C1754.31 375.378 1735.5 358.415 1713.44 359.553L1715.5 399.5L1717.56 439.447ZM284.5 1659.5L321.082 1675.68L321.122 1675.59L284.54 1659.41L247.959 1643.23L247.918 1643.32L284.5 1659.5ZM284.54 1659.41L315.099 1685.22C332.346 1664.8 345.499 1648.65 354.178 1637.11L322.21 1613.07L290.243 1589.02C282.975 1598.69 271.015 1613.43 253.982 1633.6L284.54 1659.41ZM322.21 1613.07L354.178 1637.11C363.755 1624.38 371.983 1610.8 378.841 1596.42L342.734 1579.2L306.627 1561.99C302.066 1571.56 296.612 1580.56 290.243 1589.02L322.21 1613.07ZM342.734 1579.2L378.841 1596.42C383.359 1586.94 388.895 1577.83 395.506 1569.09L363.596 1544.97L331.686 1520.85C321.899 1533.8 313.527 1547.52 306.627 1561.99L342.734 1579.2ZM363.596 1544.97L395.506 1569.09C406.935 1553.97 415.024 1537.09 419.556 1518.71L380.719 1509.13L341.883 1499.56C339.981 1507.27 336.654 1514.28 331.686 1520.85L363.596 1544.97ZM380.719 1509.13L419.556 1518.71C421.98 1508.88 425.612 1499.33 430.525 1489.99L395.131 1471.36L359.737 1452.72C351.868 1467.67 345.892 1483.3 341.883 1499.56L380.719 1509.13ZM395.131 1471.36L430.525 1489.99C439.421 1473.1 444.695 1455 446.169 1435.99L406.289 1432.89L366.409 1429.8C365.788 1437.8 363.623 1445.34 359.737 1452.72L395.131 1471.36ZM406.289 1432.89L446.169 1435.99C447.124 1423.68 448.623 1411.54 450.662 1399.56L411.229 1392.85L371.796 1386.14C369.344 1400.54 367.55 1415.1 366.409 1429.8L406.289 1432.89ZM411.229 1392.85L450.662 1399.56C453.08 1385.36 454.946 1371.08 456.26 1356.73L416.427 1353.08L376.594 1349.43C375.468 1361.73 373.868 1373.96 371.796 1386.14L411.229 1392.85ZM416.427 1353.08L456.26 1356.73C457.609 1342.01 458.179 1327.24 457.972 1312.43L417.976 1312.99L377.98 1313.55C378.148 1325.56 377.686 1337.52 376.594 1349.43L416.427 1353.08ZM417.976 1312.99L457.972 1312.43C457.768 1297.92 456.966 1283.45 455.566 1269L415.753 1272.86L375.939 1276.72C377.127 1288.97 377.807 1301.25 377.98 1313.55L417.976 1312.99ZM415.753 1272.86L455.566 1269C454.507 1258.07 454.455 1247.22 455.399 1236.4L415.551 1232.92L375.703 1229.44C374.329 1245.17 374.411 1260.94 375.939 1276.72L415.753 1272.86ZM415.551 1232.92L455.399 1236.4C456.603 1222.62 457.543 1208.81 458.219 1194.97L418.266 1193.02L378.314 1191.06C377.688 1203.89 376.817 1216.68 375.703 1229.44L415.551 1232.92ZM418.266 1193.02L458.219 1194.97C458.801 1183.03 460.013 1171.06 461.86 1159.05L422.324 1152.97L382.788 1146.89C380.527 1161.61 379.033 1176.33 378.314 1191.06L418.266 1193.02ZM422.324 1152.97L461.86 1159.05C464.949 1138.95 462.918 1119.02 456.166 1099.84L418.435 1113.12L380.705 1126.41C383.246 1133.62 383.807 1140.26 382.788 1146.89L422.324 1152.97ZM418.435 1113.12L456.166 1099.84C454.415 1094.87 454.29 1090.34 455.971 1084.94L417.781 1073.05L379.591 1061.15C372.851 1082.79 373.162 1104.98 380.705 1126.41L418.435 1113.12ZM417.781 1073.05L455.971 1084.94C462.722 1063.27 462.385 1041.04 454.689 1019.6L417.041 1033.11L379.394 1046.63C381.106 1051.4 381.263 1055.79 379.591 1061.15L417.781 1073.05ZM417.041 1033.11L454.689 1019.6C453.747 1016.97 453.048 1014.8 452.545 1013.05C452.036 1011.27 451.787 1010.13 451.679 1009.53C451.56 1008.87 451.686 1009.28 451.695 1010.48C451.699 1011.12 451.672 1012.15 451.501 1013.49C451.332 1014.81 450.996 1016.64 450.3 1018.79L412.242 1006.48L374.184 994.167C370.336 1006.06 371.811 1017.41 372.947 1023.72C374.292 1031.18 376.648 1038.98 379.394 1046.63L417.041 1033.11ZM412.242 1006.48L450.247 1018.96L452.505 1012.08L414.501 999.6L376.497 987.123L374.238 994.001L412.242 1006.48ZM414.501 999.6L454.5 999.307L454.499 999.207L414.5 999.5L374.501 999.793L374.502 999.893L414.501 999.6ZM911.76 669.753L951.38 664.255C949.123 647.988 944.996 632.165 939.022 616.845L901.755 631.378L864.489 645.91C868.201 655.429 870.743 665.189 872.14 675.251L911.76 669.753ZM901.755 631.378L939.022 616.845C934.465 605.159 930.204 593.213 926.24 581.005L888.195 593.358L850.15 605.711C854.581 619.358 859.36 632.758 864.489 645.91L901.755 631.378ZM888.195 593.358L926.24 581.005C921.107 565.196 914.251 550.15 905.692 535.924L871.417 556.547L837.143 577.169C842.56 586.171 846.889 595.666 850.15 605.711L888.195 593.358ZM871.417 556.547L905.692 535.924C895.112 518.341 880.585 504.271 862.953 493.755L842.464 528.11L821.976 562.464C828.972 566.636 833.747 571.524 837.143 577.169L871.417 556.547ZM842.464 528.11L862.953 493.755C858.208 490.926 855.428 487.581 853.539 482.73L816.264 497.242L778.99 511.754C787.406 533.372 802.093 550.606 821.976 562.464L842.464 528.11ZM816.264 497.242L853.539 482.73C846.572 464.835 836.533 448.798 823.316 435.081L794.511 462.835L765.707 490.589C771.188 496.278 775.651 503.179 778.99 511.754L816.264 497.242ZM794.511 462.835L823.316 435.081C812.191 423.535 800.042 413.131 786.899 403.885L763.885 436.602L740.871 469.318C749.865 475.644 758.133 482.729 765.707 490.589L794.511 462.835ZM763.885 436.602L786.899 403.885C775.343 395.756 763.648 387.915 751.812 380.362L730.294 414.081L708.775 447.8C719.591 454.702 730.29 461.875 740.871 469.318L763.885 436.602ZM730.294 414.081L751.812 380.362C743.236 374.889 735.374 368.416 728.189 360.878L699.234 388.475L670.278 416.072C681.856 428.219 694.7 438.817 708.775 447.8L730.294 414.081ZM699.234 388.475L728.189 360.878C713.825 345.808 696.28 335.287 676.31 329.491L665.16 367.906L654.011 406.32C660.709 408.264 665.88 411.457 670.278 416.072L699.234 388.475ZM665.16 367.906L676.31 329.491C668.356 327.182 661.607 323.513 655.656 318.41L629.619 348.776L603.583 379.143C618.351 391.805 635.295 400.888 654.011 406.32L665.16 367.906ZM629.619 348.776L655.656 318.41C639.118 304.231 619.514 295.808 597.887 293.456L593.562 333.222L589.238 372.987C594.968 373.61 599.401 375.557 603.583 379.143L629.619 348.776ZM593.562 333.222L597.887 293.456C589.719 292.568 582.231 290.127 575.088 286.017L555.139 320.688L535.19 355.358C551.922 364.986 570.05 370.901 589.238 372.987L593.562 333.222ZM555.139 320.688L575.088 286.017C556.675 275.423 536.416 270.379 515.143 271.373L517.01 311.329L518.877 351.286C524.568 351.02 529.727 352.215 535.19 355.358L555.139 320.688ZM517.01 311.329L515.143 271.373C498.073 272.171 481.414 275.229 465.275 280.574L477.85 318.546L490.425 356.518C499.537 353.5 508.984 351.748 518.877 351.286L517.01 311.329ZM477.85 318.546L465.275 280.574C445.012 287.284 427.915 299.456 415.174 316.729L447.365 340.472L479.556 364.216C482.212 360.615 485.438 358.169 490.425 356.518L477.85 318.546ZM447.365 340.472L415.174 316.729C407.995 326.462 400.161 336.413 391.66 346.579L422.345 372.239L453.03 397.898C462.493 386.583 471.339 375.356 479.556 364.216L447.365 340.472ZM422.345 372.239L391.66 346.579C375.313 366.128 368.715 389.884 372.104 414.921L411.743 409.557L451.381 404.192C451.086 402.011 451.321 400.958 451.435 400.556C451.544 400.173 451.84 399.322 453.03 397.898L422.345 372.239ZM411.743 409.557L372.104 414.921C373.366 424.247 372.826 432.56 370.845 440.204L409.566 450.238L448.287 460.272C453.035 441.95 453.946 423.142 451.381 404.192L411.743 409.557ZM409.566 450.238L370.845 440.204C366.279 457.826 364.94 475.804 366.845 493.909L406.626 489.722L446.406 485.535C445.503 476.96 446.125 468.616 448.287 460.272L409.566 450.238ZM406.626 489.722L366.845 493.909C368.079 505.625 368.582 517.271 368.362 528.854L408.355 529.612L448.348 530.37C448.631 515.445 447.981 500.497 446.406 485.535L406.626 489.722ZM408.355 529.612L368.362 528.854C368.07 544.287 369.035 559.659 371.255 574.947L410.84 569.199L450.425 563.451C448.829 552.465 448.138 541.445 448.348 530.37L408.355 529.612ZM410.84 569.199L371.255 574.947C372.52 583.659 372.4 592.842 370.676 602.674L410.075 609.583L449.473 616.492C452.584 598.753 452.975 581.014 450.425 563.451L410.84 569.199ZM410.075 609.583L370.676 602.674C367.044 623.385 368.872 643.988 376.411 663.661L413.762 649.348L451.114 635.036C448.9 629.259 448.271 623.351 449.473 616.492L410.075 609.583ZM413.762 649.348L376.411 663.661C380.288 673.779 382.989 683.967 384.568 694.266L424.106 688.207L463.644 682.148C461.183 666.084 456.989 650.367 451.114 635.036L413.762 649.348ZM424.106 688.207L384.568 694.266C386.824 708.988 389.937 723.567 393.902 737.996L432.472 727.397L471.042 716.798C467.892 705.335 465.428 693.787 463.644 682.148L424.106 688.207ZM432.472 727.397L393.902 737.996C396.456 747.291 397.664 756.743 397.525 766.467L437.521 767.036L477.517 767.604C477.762 750.369 475.604 733.396 471.042 716.798L432.472 727.397ZM437.521 767.036L397.525 766.467C397.329 780.284 397.308 794.011 397.464 807.648L437.461 807.192L477.459 806.736C477.311 793.791 477.33 780.747 477.517 767.604L437.521 767.036ZM437.461 807.192L397.464 807.648C397.635 822.664 398.775 837.67 400.875 852.658L440.488 847.109L480.101 841.56C478.469 829.907 477.591 818.303 477.459 806.736L437.461 807.192ZM440.488 847.109L400.875 852.658C402.368 863.318 402.776 873.974 402.105 884.667L442.027 887.172L481.948 889.676C482.957 873.593 482.34 857.54 480.101 841.56L440.488 847.109ZM442.027 887.172L402.105 884.667C401.525 893.921 399.554 902.909 396.124 911.766L433.424 926.214L470.723 940.661C477.084 924.239 480.849 907.199 481.948 889.676L442.027 887.172ZM433.424 926.214L396.124 911.766C389.738 928.253 385.989 945.403 384.89 963.071L424.813 965.554L464.736 968.036C465.327 958.53 467.318 949.453 470.723 940.661L433.424 926.214ZM424.813 965.554L384.89 963.071C383.821 980.269 385.17 997.23 390.09 1013.19L428.314 1001.4L466.538 989.611C465.1 984.949 464.115 978.014 464.736 968.036L424.813 965.554ZM428.314 1001.4L390.09 1013.19C398.441 1040.27 420.182 1054.84 442.751 1060.71L452.823 1022L462.894 983.286C460.545 982.675 461.021 982.364 462.562 983.659C463.355 984.325 464.228 985.255 465.007 986.434C465.784 987.609 466.266 988.729 466.538 989.611L428.314 1001.4ZM452.823 1022L442.751 1060.71C454.527 1063.77 465.926 1067.41 476.959 1071.62L491.208 1034.24L505.456 996.865C491.629 991.594 477.438 987.07 462.894 983.286L452.823 1022ZM491.208 1034.24L476.959 1071.62C491.343 1077.1 506.036 1081.42 521.021 1084.55L529.204 1045.39L537.386 1006.24C526.57 1003.98 515.933 1000.86 505.456 996.865L491.208 1034.24ZM529.204 1045.39L521.021 1084.55C532.068 1086.86 543.262 1090.01 554.613 1094.05L568.03 1056.37L581.447 1018.69C566.832 1013.48 552.142 1009.32 537.386 1006.24L529.204 1045.39ZM568.03 1056.37L554.613 1094.05C573.18 1100.66 592.47 1103 612.047 1100.88L607.746 1061.12L603.445 1021.35C596.033 1022.15 588.847 1021.32 581.447 1018.69L568.03 1056.37ZM607.746 1061.12L612.047 1100.88C627.585 1099.2 642.861 1096.34 657.855 1092.3L647.435 1053.68L637.016 1015.06C626.078 1018.01 614.895 1020.11 603.445 1021.35L607.746 1061.12ZM647.435 1053.68L657.855 1092.3C669.387 1089.19 681.259 1086.67 693.484 1084.76L687.309 1045.24L681.135 1005.72C666.125 1008.07 651.415 1011.18 637.016 1015.06L647.435 1053.68ZM687.309 1045.24L693.484 1084.76C712.977 1081.72 731.067 1074.55 747.313 1063.37L724.639 1030.42L701.966 997.465C695.672 1001.8 688.875 1004.51 681.135 1005.72L687.309 1045.24ZM724.639 1030.42L747.313 1063.37C759.781 1054.79 771.674 1045.61 782.982 1035.82L756.801 1005.58L730.62 975.336C721.586 983.158 712.038 990.535 701.966 997.465L724.639 1030.42ZM756.801 1005.58L782.982 1035.82C793.503 1026.71 803.825 1017.46 813.947 1008.05L786.724 978.747L759.501 949.44C750.068 958.202 740.442 966.834 730.62 975.336L756.801 1005.58ZM786.724 978.747L813.947 1008.05C825.168 997.631 835.563 986.437 845.124 974.481L813.883 949.5L782.643 924.519C775.546 933.395 767.836 941.698 759.501 949.44L786.724 978.747ZM813.883 949.5L845.124 974.481C853.401 964.129 861.731 953.779 870.112 943.428L839.025 918.256L807.939 893.084C799.455 903.561 791.023 914.039 782.643 924.519L813.883 949.5ZM839.025 918.256L870.112 943.428C879.686 931.605 888.426 919.171 896.327 906.139L862.123 885.401L827.918 864.664C821.888 874.61 815.23 884.08 807.939 893.084L839.025 918.256ZM862.123 885.401L896.327 906.139C906.014 890.162 912.352 872.76 915.374 854.249L875.896 847.804L836.419 841.359C835.008 849.999 832.164 857.661 827.918 864.664L862.123 885.401ZM875.896 847.804L915.374 854.249C916.662 846.359 919.464 839.282 923.926 832.648L890.737 810.321L857.549 787.994C846.655 804.187 839.563 822.098 836.419 841.359L875.896 847.804ZM890.737 810.321L923.926 832.648C933.53 818.372 941.144 803.105 946.696 786.912L908.858 773.94L871.02 760.967C867.767 770.456 863.301 779.444 857.549 787.994L890.737 810.321ZM908.858 773.94L946.696 786.912C953.351 767.502 954.79 747.358 951.304 727.146L911.886 733.945L872.468 740.743C873.75 748.175 873.171 754.695 871.02 760.967L908.858 773.94ZM911.886 733.945L951.304 727.146C950.533 722.676 950.536 720.004 950.64 718.757C950.738 717.575 950.866 718.359 949.934 720.114L914.605 701.356L879.276 682.598C869.151 701.669 869.379 722.831 872.468 740.743L911.886 733.945ZM914.605 701.356L949.934 720.114C952.187 715.871 955.448 709.391 957.23 702.567C957.825 700.285 960.377 690.759 957.237 679.498C955.336 672.678 950.969 664.026 942.064 657.472C933.315 651.031 924.098 649.5 917.7 649.5V689.5V729.5C911.836 729.5 903.053 728.092 894.639 721.899C886.07 715.591 881.94 707.31 880.176 700.984C877.312 690.71 879.744 682.667 879.823 682.361C880.573 679.488 881.22 678.937 879.276 682.598L914.605 701.356ZM917.7 689.5V649.5C928.431 649.5 936.62 653.811 941.615 657.734C946.251 661.376 948.872 665.183 950.05 667.067C951.35 669.147 952.076 670.817 952.39 671.585C952.736 672.432 952.898 672.968 952.919 673.041C952.949 673.138 952.76 672.505 952.436 670.821C952.127 669.218 951.769 667.058 951.38 664.255L911.76 669.753L872.14 675.251C873.126 682.362 874.409 689.764 876.311 696.086C877.172 698.951 878.894 704.162 882.208 709.464C884.152 712.574 895.079 729.5 917.7 729.5V689.5ZM414.5 999.5L377.625 1015L377.664 1015.09L414.539 999.592L451.414 984.092L451.375 984L414.5 999.5ZM414.539 999.592L375.16 1006.62C380.049 1034.03 385.386 1056.88 391.678 1073.01L428.944 1058.48L466.209 1043.94C462.914 1035.49 458.648 1019.09 453.917 992.569L414.539 999.592ZM428.944 1058.48L391.678 1073.01C397.179 1087.12 403.741 1100.91 411.334 1114.39L446.184 1094.75L481.034 1075.12C475.226 1064.81 470.296 1054.42 466.209 1043.94L428.944 1058.48ZM446.184 1094.75L411.334 1114.39C417.971 1126.17 424.454 1137.81 430.783 1149.3L465.824 1130.01L500.865 1110.72C494.406 1098.99 487.796 1087.12 481.034 1075.12L446.184 1094.75ZM465.824 1130.01L430.783 1149.3C436.649 1159.96 442.126 1170.94 447.211 1182.25L483.695 1165.85L520.179 1149.46C514.224 1136.21 507.786 1123.29 500.865 1110.72L465.824 1130.01ZM483.695 1165.85L447.211 1182.25C453.014 1195.16 459.105 1207.82 465.486 1220.23L501.055 1201.93L536.625 1183.63C530.898 1172.5 525.415 1161.11 520.179 1149.46L483.695 1165.85ZM501.055 1201.93L465.486 1220.23C471.285 1231.5 476.873 1242.94 482.251 1254.55L518.549 1237.75L554.847 1220.94C549.008 1208.33 542.934 1195.89 536.625 1183.63L501.055 1201.93ZM518.549 1237.75L482.251 1254.55C487.029 1264.88 491.062 1275.58 494.344 1286.69L532.705 1275.35L571.065 1264.02C566.69 1249.21 561.285 1234.85 554.847 1220.94L518.549 1237.75ZM532.705 1275.35L494.344 1286.69C498.18 1299.67 502.024 1312.64 505.877 1325.6L544.218 1314.19L582.559 1302.79C578.719 1289.88 574.887 1276.95 571.065 1264.02L532.705 1275.35ZM544.218 1314.19L505.877 1325.6C511.984 1346.13 523.58 1363.64 539.543 1377.77L566.049 1347.81L592.554 1317.85C587.103 1313.03 584.145 1308.13 582.559 1302.79L544.218 1314.19ZM566.049 1347.81L539.543 1377.77C545.427 1382.97 548.959 1388.42 551.031 1394.36L588.796 1381.17L626.56 1367.99C619.717 1348.38 608.084 1331.59 592.554 1317.85L566.049 1347.81ZM588.796 1381.17L551.031 1394.36C557.06 1411.62 565.961 1427.37 577.678 1441.35L608.336 1415.66L638.994 1389.97C633.573 1383.5 629.446 1376.25 626.56 1367.99L588.796 1381.17ZM608.336 1415.66L577.678 1441.35C584.115 1449.03 589.584 1457.47 594.095 1466.76L630.071 1449.27L666.047 1431.79C658.718 1416.71 649.697 1402.74 638.994 1389.97L608.336 1415.66ZM630.071 1449.27L594.095 1466.76C601.703 1482.41 611.407 1496.68 623.162 1509.45L652.59 1482.36L682.018 1455.27C675.589 1448.28 670.28 1440.5 666.047 1431.79L630.071 1449.27ZM652.59 1482.36L623.162 1509.45C630.823 1517.77 637.735 1526.59 643.913 1535.93L677.268 1513.85L710.622 1491.77C702.081 1478.87 692.54 1466.7 682.018 1455.27L652.59 1482.36ZM677.268 1513.85L643.913 1535.93C651.234 1546.99 658.569 1558.13 665.919 1569.36L699.389 1547.46L732.859 1525.56C725.434 1514.21 718.021 1502.95 710.622 1491.77L677.268 1513.85ZM699.389 1547.46L665.919 1569.36C675.31 1583.71 686.492 1596.55 699.409 1607.8L725.668 1577.62L751.928 1547.45C744.581 1541.05 738.245 1533.79 732.859 1525.56L699.389 1547.46ZM725.668 1577.62L699.409 1607.8C710.468 1617.42 721.942 1626.51 733.827 1635.06L757.191 1602.6L780.554 1570.13C770.672 1563.02 761.131 1555.46 751.928 1547.45L725.668 1577.62ZM757.191 1602.6L733.827 1635.06C745.106 1643.18 756.493 1651.06 767.987 1658.71L790.139 1625.4L812.291 1592.09C801.621 1585 791.042 1577.67 780.554 1570.13L757.191 1602.6ZM790.139 1625.4L767.987 1658.71C780.007 1666.7 792.322 1674.16 804.931 1681.08L824.182 1646.02L843.434 1610.96C832.816 1605.13 822.436 1598.84 812.291 1592.09L790.139 1625.4ZM824.182 1646.02L804.931 1681.08C818.293 1688.42 832.108 1694.71 846.363 1699.94L860.138 1662.38L873.913 1624.83C863.453 1620.99 853.298 1616.37 843.434 1610.96L824.182 1646.02ZM860.138 1662.38L846.363 1699.94C855.65 1703.34 864.967 1708.04 874.324 1714.19L896.297 1680.77L918.27 1647.34C904.13 1638.05 889.341 1630.49 873.913 1624.83L860.138 1662.38ZM896.297 1680.77L874.324 1714.19C895.062 1727.83 918.787 1732.22 943.024 1726.99L934.582 1687.89L926.141 1648.79C922.827 1649.51 921.029 1649.16 918.27 1647.34L896.297 1680.77ZM934.582 1687.89L943.024 1726.99C953.911 1724.64 964.16 1723.68 973.849 1723.94L974.905 1683.95L975.961 1643.96C959.436 1643.53 942.803 1645.2 926.141 1648.79L934.582 1687.89ZM974.905 1683.95L973.849 1723.94C988.713 1724.33 1003.62 1723.75 1018.56 1722.19L1014.43 1682.41L1010.3 1642.62C998.753 1643.82 987.31 1644.26 975.961 1643.96L974.905 1683.95ZM1014.43 1682.41L1018.56 1722.19C1037.77 1720.2 1055.82 1714.07 1072.33 1704.04L1051.57 1669.85L1030.8 1635.67C1024.28 1639.62 1017.58 1641.87 1010.3 1642.62L1014.43 1682.41ZM1051.57 1669.85L1072.33 1704.04C1078.5 1700.29 1085.63 1697.82 1094.29 1696.91L1090.11 1657.13L1085.94 1617.35C1066.23 1619.42 1047.65 1625.43 1030.8 1635.67L1051.57 1669.85ZM1090.11 1657.13L1094.29 1696.91C1118.01 1694.42 1138.94 1684.06 1155.06 1666.21L1125.36 1639.41L1095.67 1612.61C1093.15 1615.4 1090.58 1616.86 1085.94 1617.35L1090.11 1657.13ZM1125.36 1639.41L1155.06 1666.21C1161.39 1659.19 1168.37 1653.74 1176.08 1649.6L1157.17 1614.36L1138.25 1579.11C1122.19 1587.73 1107.97 1598.98 1095.67 1612.61L1125.36 1639.41ZM1157.17 1614.36L1176.08 1649.6C1193.85 1640.07 1208.49 1626.65 1219.69 1609.89L1186.43 1587.67L1153.18 1565.45C1149.12 1571.51 1144.26 1575.89 1138.25 1579.11L1157.17 1614.36ZM1186.43 1587.67L1219.69 1609.89C1224.48 1602.72 1230.24 1596.94 1237.12 1592.29L1214.71 1559.16L1192.3 1526.03C1176.73 1536.56 1163.64 1549.78 1153.18 1565.45L1186.43 1587.67ZM1214.71 1559.16L1237.12 1592.29C1250 1583.58 1262.14 1573.96 1273.49 1563.45L1246.33 1534.09L1219.16 1504.73C1210.8 1512.47 1201.85 1519.56 1192.3 1526.03L1214.71 1559.16ZM1246.33 1534.09L1273.49 1563.45C1285.72 1552.14 1296.43 1539.5 1305.58 1525.61L1272.16 1503.62L1238.74 1481.63C1233.16 1490.12 1226.65 1497.8 1219.16 1504.73L1246.33 1534.09ZM1272.16 1503.62L1305.58 1525.61C1313.21 1514 1320.62 1502.28 1327.79 1490.43L1293.58 1469.71L1259.37 1448.98C1252.71 1459.97 1245.83 1470.86 1238.74 1481.63L1272.16 1503.62ZM1293.58 1469.71L1327.79 1490.43C1334.19 1479.87 1340.96 1469.59 1348.1 1459.59L1315.55 1436.34L1283 1413.1C1274.68 1424.74 1266.8 1436.7 1259.37 1448.98L1293.58 1469.71ZM1315.55 1436.34L1348.1 1459.59C1354.89 1450.08 1362.33 1440.88 1370.41 1432L1340.84 1405.07L1311.26 1378.14C1301.09 1389.31 1291.66 1400.96 1283 1413.1L1315.55 1436.34ZM1340.84 1405.07L1370.41 1432C1381.98 1419.3 1391.65 1405.26 1399.32 1389.95L1363.56 1372.03L1327.8 1354.1C1323.44 1362.8 1317.96 1370.79 1311.26 1378.14L1340.84 1405.07ZM1363.56 1372.03L1399.32 1389.95C1406.44 1375.74 1412.18 1361.03 1416.5 1345.84L1378.02 1334.9L1339.55 1323.96C1336.62 1334.27 1332.71 1344.31 1327.8 1354.1L1363.56 1372.03ZM1378.02 1334.9L1416.5 1345.84C1420.29 1332.5 1423.79 1319.02 1427 1305.41L1388.07 1296.22L1349.14 1287.04C1346.2 1299.49 1343.01 1311.79 1339.55 1323.96L1378.02 1334.9ZM1388.07 1296.22L1427 1305.41C1429.87 1293.26 1433.15 1281.2 1436.85 1269.23L1398.63 1257.43L1360.41 1245.62C1356.18 1259.31 1352.42 1273.12 1349.14 1287.04L1388.07 1296.22ZM1398.63 1257.43L1436.85 1269.23C1442.41 1251.25 1444.25 1232.67 1442.54 1213.82L1402.7 1217.43L1362.87 1221.03C1363.66 1229.85 1362.79 1237.93 1360.41 1245.62L1398.63 1257.43ZM1402.7 1217.43L1442.54 1213.82C1441.8 1205.69 1442.79 1198.32 1445.36 1191.26L1407.77 1177.59L1370.17 1163.92C1363.49 1182.32 1361.1 1201.5 1362.87 1221.03L1402.7 1217.43ZM1407.77 1177.59L1445.36 1191.26C1452.13 1172.65 1454.37 1153.24 1452.15 1133.55L1412.4 1138.03L1372.65 1142.51C1373.51 1150.12 1372.66 1157.09 1370.17 1163.92L1407.77 1177.59ZM1412.4 1138.03L1452.15 1133.55C1451.1 1124.28 1451.61 1115.46 1453.58 1106.88L1414.6 1097.93L1375.61 1088.97C1371.57 1106.56 1370.62 1124.48 1372.65 1142.51L1412.4 1138.03ZM1414.6 1097.93L1453.58 1106.88C1456.39 1094.68 1459.63 1082.45 1463.3 1070.21L1425 1058.7L1386.69 1047.19C1382.51 1061.09 1378.82 1075.02 1375.61 1088.97L1414.6 1097.93ZM1425 1058.7L1463.3 1070.21C1469.37 1050.03 1469.68 1029.34 1464.56 1008.94L1425.76 1018.68L1386.97 1028.43C1388.68 1035.24 1388.48 1041.23 1386.69 1047.19L1425 1058.7ZM1425.76 1018.68L1464.56 1008.94C1462.86 1002.18 1463.05 996.179 1464.88 990.139L1426.58 978.578L1388.29 967.016C1382.19 987.236 1381.83 1007.97 1386.97 1028.43L1425.76 1018.68ZM1426.58 978.578L1464.88 990.139C1470.86 970.321 1471.53 949.976 1466.89 929.803L1427.91 938.762L1388.92 947.721C1390.45 954.376 1390.24 960.574 1388.29 967.016L1426.58 978.578ZM1427.91 938.762L1466.89 929.803C1465.05 921.795 1464.95 914.14 1466.47 906.462L1427.23 898.699L1387.99 890.935C1384.25 909.848 1384.6 928.901 1388.92 947.721L1427.91 938.762ZM1427.23 898.699L1466.47 906.462C1469.29 892.216 1471.58 877.906 1473.35 863.534L1433.65 858.652L1393.94 853.769C1392.42 866.203 1390.43 878.591 1387.99 890.935L1427.23 898.699ZM1433.65 858.652L1473.35 863.534C1475.5 846.018 1474.93 828.517 1471.63 811.18L1432.34 818.65L1393.04 826.12C1394.79 835.312 1395.09 844.479 1393.94 853.769L1433.65 858.652ZM1432.34 818.65L1471.63 811.18C1469.54 800.193 1468.44 789.201 1468.3 778.177L1428.3 778.678L1388.31 779.178C1388.5 794.921 1390.08 810.577 1393.04 826.12L1432.34 818.65ZM1428.3 778.678L1468.3 778.177C1468.09 761.366 1465.74 744.785 1461.29 728.512L1422.71 739.063L1384.12 749.613C1386.8 759.394 1388.18 769.222 1388.31 779.178L1428.3 778.678ZM1422.71 739.063L1461.29 728.512C1457.9 716.128 1454.86 703.769 1452.15 691.434L1413.08 700.015L1374.01 708.596C1377.01 722.271 1380.39 735.944 1384.12 749.613L1422.71 739.063ZM1413.08 700.015L1452.15 691.434C1450.26 682.834 1449.75 673.765 1450.8 664.037L1411.02 659.761L1371.25 655.486C1369.33 673.418 1370.19 691.185 1374.01 708.596L1413.08 700.015ZM1411.02 659.761L1450.8 664.037C1452.85 644.954 1451.13 626.103 1445.44 607.859L1407.25 619.774L1369.07 631.688C1371.38 639.101 1372.18 646.909 1371.25 655.486L1411.02 659.761ZM1407.25 619.774L1445.44 607.859C1441.02 593.705 1435.87 579.808 1430.01 566.174L1393.26 581.989L1356.52 597.804C1361.3 608.893 1365.48 620.186 1369.07 631.688L1407.25 619.774ZM1393.26 581.989L1430.01 566.174C1426.28 557.509 1423.87 548.401 1422.8 538.71L1383.04 543.083L1343.28 547.457C1345.2 564.915 1349.61 581.745 1356.52 597.804L1393.26 581.989ZM1383.04 543.083L1422.8 538.71C1420.91 521.506 1416.72 504.878 1410.22 488.944L1373.19 504.06L1336.15 519.176C1339.8 528.123 1342.19 537.511 1343.28 547.457L1383.04 543.083ZM1373.19 504.06L1410.22 488.944C1404.05 473.816 1396.29 459.477 1386.98 445.964L1354.04 468.654L1321.09 491.343C1327.17 500.158 1332.17 509.423 1336.15 519.176L1373.19 504.06ZM1354.04 468.654L1386.98 445.964C1381.77 438.407 1377.87 430.163 1375.26 421.057L1336.81 432.106L1298.37 443.154C1303.34 460.452 1310.92 476.574 1321.09 491.343L1354.04 468.654ZM1336.81 432.106L1375.26 421.057C1371.02 406.314 1363.48 386.736 1347.22 374.213L1322.81 405.901L1298.4 437.59C1296.73 436.302 1295.75 435.169 1295.34 434.64C1294.93 434.113 1294.91 433.988 1295.19 434.504C1295.8 435.644 1296.97 438.302 1298.37 443.154L1336.81 432.106ZM1322.81 405.901L1347.05 374.084L1338.77 367.777L1314.53 399.595L1290.29 431.412L1298.57 437.719L1322.81 405.901ZM1314.53 399.595L1352.35 386.567L1352.32 386.473L1314.5 399.5L1276.68 412.527L1276.71 412.622L1314.53 399.595ZM1314.5 399.5L1315.07 359.504L1314.97 359.503L1314.4 399.499L1313.83 439.494L1313.93 439.496L1314.5 399.5ZM1314.4 399.499L1329.15 362.318C1303.02 351.95 1278.15 344.493 1257.22 343.984L1256.25 383.972L1255.28 423.96C1261.36 424.108 1275.26 427.002 1299.65 436.679L1314.4 399.499ZM1256.25 383.972L1257.22 343.984C1243.58 343.652 1230 343.39 1216.47 343.198L1215.9 383.194L1215.33 423.19C1228.59 423.378 1241.9 423.635 1255.28 423.96L1256.25 383.972ZM1215.9 383.194L1216.47 343.198C1203.64 343.015 1190.84 342.565 1178.09 341.847L1175.84 381.784L1173.59 421.721C1187.47 422.502 1201.39 422.991 1215.33 423.19L1215.9 383.194ZM1175.84 381.784L1178.09 341.847C1163.8 341.044 1149.51 340.758 1135.21 340.988L1135.85 380.983L1136.5 420.978C1148.87 420.779 1161.24 421.026 1173.59 421.721L1175.84 381.784ZM1135.85 380.983L1135.21 340.988C1121.48 341.21 1107.74 341.632 1094.01 342.254L1095.82 382.213L1097.63 422.172C1110.59 421.585 1123.54 421.187 1136.5 420.978L1135.85 380.983ZM1095.82 382.213L1094.01 342.254C1077.96 342.982 1062.1 345.327 1046.47 349.274L1056.27 388.055L1066.07 426.837C1076.49 424.204 1087 422.654 1097.63 422.172L1095.82 382.213ZM1056.27 388.055L1046.47 349.274C1037.89 351.442 1029.03 352.162 1019.68 351.344L1016.2 391.192L1012.71 431.04C1030.75 432.619 1048.61 431.248 1066.07 426.837L1056.27 388.055ZM1016.2 391.192L1019.68 351.344C1003.56 349.933 984.559 350.364 967.835 358.354L985.077 394.447L1002.32 430.54C1000.61 431.358 1000.23 431.106 1002.31 430.89C1004.3 430.682 1007.65 430.597 1012.71 431.04L1016.2 391.192ZM985.077 394.447L967.705 358.416L957.228 363.468L974.6 399.498L991.972 435.529L1002.45 430.478L985.077 394.447ZM974.6 399.498L973.984 359.503L973.884 359.505L974.5 399.5L975.116 439.495L975.216 439.494L974.6 399.498ZM1314.5 399.5L1312.21 439.434L1312.31 439.44L1314.6 399.506L1316.89 359.571L1316.79 359.566L1314.5 399.5ZM1314.6 399.506L1306.2 438.614C1331.88 444.13 1349.6 448.682 1360.33 452.221L1372.87 414.235L1385.4 376.249C1370.47 371.324 1349.35 366.057 1323 360.398L1314.6 399.506ZM1372.87 414.235L1360.33 452.221C1375.07 457.083 1390.08 460.806 1405.33 463.382L1411.99 423.94L1418.65 384.498C1407.4 382.598 1396.32 379.851 1385.4 376.249L1372.87 414.235ZM1411.99 423.94L1405.33 463.382C1424.29 466.582 1443.33 465.663 1462.1 460.976L1452.4 422.168L1442.71 383.36C1434.1 385.511 1426.2 385.772 1418.65 384.498L1411.99 423.94ZM1452.4 422.168L1462.1 460.976C1471.44 458.643 1480.06 458.107 1488.21 459.033L1492.73 419.289L1497.24 379.545C1479.01 377.471 1460.75 378.855 1442.71 383.36L1452.4 422.168ZM1492.73 419.289L1488.21 459.033C1499.4 460.305 1510.8 462.455 1522.42 465.524L1532.63 426.848L1542.84 388.173C1527.64 384.162 1512.44 381.272 1497.24 379.545L1492.73 419.289ZM1532.63 426.848L1522.42 465.524C1542.98 470.951 1563.87 470.588 1584.21 464.345L1572.48 426.105L1560.75 387.864C1554.79 389.693 1549.1 389.826 1542.84 388.173L1532.63 426.848ZM1572.48 426.105L1584.21 464.345C1596.7 460.513 1609.06 457.079 1621.28 454.037L1611.62 415.221L1601.96 376.406C1588.3 379.804 1574.56 383.625 1560.75 387.864L1572.48 426.105ZM1611.62 415.221L1621.28 454.037C1630.09 451.845 1639.22 451.024 1648.85 451.663L1651.5 411.751L1654.15 371.839C1636.47 370.665 1619.02 372.158 1601.96 376.406L1611.62 415.221ZM1651.5 411.751L1648.85 451.663C1666.18 452.814 1683.33 451.576 1700.19 447.898L1691.67 408.817L1683.14 369.736C1673.76 371.784 1664.13 372.501 1654.15 371.839L1651.5 411.751ZM1691.67 408.817L1700.19 447.898C1707.18 446.375 1713.6 444.8 1718.89 443.145C1721.47 442.338 1724.68 441.236 1727.9 439.766C1729.45 439.057 1737.65 435.5 1744.27 427.48L1713.43 402.012L1682.58 376.543C1684.47 374.26 1686.28 372.601 1687.62 371.497C1688.98 370.37 1690.19 369.538 1691.08 368.971C1692.79 367.875 1694.13 367.241 1694.67 366.993C1695.74 366.508 1696.05 366.466 1695.01 366.793C1694.13 367.069 1692.71 367.471 1690.64 367.993C1688.6 368.506 1686.12 369.088 1683.14 369.736L1691.67 408.817ZM1713.43 402.012L1744.85 426.761L1746.82 424.254L1715.4 399.505L1683.98 374.756L1682 377.263L1713.43 402.012ZM1715.4 399.505L1717.46 439.452L1717.56 439.447L1715.5 399.5L1713.44 359.553L1713.34 359.558L1715.4 399.505Z" fill="#F8F2F2"/>
</svg>
